<?xml version="1.0" encoding="utf-8"?>
<!-- Generator: Adobe Illustrator 21.0.0, SVG Export Plug-In . SVG Version: 6.00 Build 0)  -->
<svg version="1.1" id="Layer_1" xmlns="http://www.w3.org/2000/svg" xmlns:xlink="http://www.w3.org/1999/xlink" x="0px" y="0px"
	 viewBox="0 0 429.7 57.5" style="enable-background:new 0 0 429.7 57.5;" xml:space="preserve">
<path style="fill:#262729;" d="M79.6,12.3v33.6h-8.7V12.3H79.6z"/>
<path style="fill:#262729;" d="M82.9,45.8l5.7-33.6h8.6l6.7,17.9l6.7-17.9h8.6l5.7,33.6h-8.7l-2.9-19.3l-7.9,19.3H102l-7.5-19.3
	l-2.9,19.3H82.9z"/>
<path style="fill:#262729;" d="M126.8,45.8l5.7-33.6h8.6l6.7,17.9l6.7-17.9h8.6l5.7,33.6h-8.7l-2.9-19.3l-7.9,19.3h-3.5l-7.5-19.3
	l-2.9,19.3H126.8z"/>
<path style="fill:#262729;" d="M191.3,19.7h-10.4v5.6h9.8v7.4h-9.8v5.8h10.4v7.4h-19.1V12.3h19.1V19.7z"/>
<path style="fill:#262729;" d="M223.3,45.8h-10.9l-8.3-12.9v12.9h-8.7V12.3h13.6c1.9,0,3.5,0.3,4.9,0.8c1.4,0.5,2.5,1.3,3.5,2.3
	c0.9,1,1.6,2,2,3.3c0.5,1.2,0.7,2.6,0.7,4c0,2.6-0.6,4.6-1.8,6.2c-1.2,1.6-3.1,2.7-5.5,3.2L223.3,45.8z M204.1,27.3h1.6
	c1.7,0,3-0.4,4-1.1c0.9-0.7,1.4-1.7,1.4-3.1c0-1.3-0.5-2.4-1.4-3.1c-0.9-0.7-2.2-1.1-4-1.1h-1.6V27.3z"/>
<path style="fill:#262729;" d="M243.1,20.9c-1-0.8-1.9-1.3-2.9-1.7c-1-0.4-1.9-0.6-2.8-0.6c-1.1,0-2,0.3-2.8,0.8
	c-0.7,0.5-1.1,1.2-1.1,2.1c0,0.6,0.2,1.1,0.5,1.5c0.4,0.4,0.8,0.7,1.4,1c0.6,0.3,1.2,0.5,2,0.7c0.7,0.2,1.4,0.4,2.2,0.7
	c2.9,1,4.9,2.2,6.3,3.8c1.3,1.6,2,3.7,2,6.2c0,1.7-0.3,3.3-0.9,4.7s-1.4,2.6-2.5,3.6c-1.1,1-2.5,1.8-4.1,2.3
	c-1.6,0.5-3.5,0.8-5.5,0.8c-4.2,0-8.2-1.3-11.8-3.8l3.7-7c1.3,1.2,2.6,2,3.9,2.6c1.3,0.6,2.5,0.8,3.8,0.8c1.4,0,2.5-0.3,3.2-1
	c0.7-0.7,1-1.4,1-2.2c0-0.5-0.1-0.9-0.3-1.3c-0.2-0.4-0.5-0.7-0.9-1c-0.4-0.3-1-0.6-1.6-0.9c-0.7-0.3-1.5-0.6-2.4-0.9
	c-1.1-0.4-2.2-0.8-3.3-1.2c-1.1-0.4-2-1-2.9-1.7c-0.8-0.7-1.5-1.6-2-2.7c-0.5-1.1-0.8-2.5-0.8-4.1c0-1.7,0.3-3.2,0.8-4.5
	c0.5-1.4,1.3-2.5,2.3-3.5c1-1,2.2-1.7,3.7-2.2c1.4-0.5,3.1-0.8,4.8-0.8c1.7,0,3.4,0.2,5.2,0.7c1.8,0.5,3.5,1.1,5.2,2L243.1,20.9z"/>
<path style="fill:#262729;" d="M260,12.3v33.6h-8.7V12.3H260z"/>
<path style="fill:#262729;" d="M270.7,12.3l8.1,20.4l8.2-20.4h9.5l-14.2,33.6h-6.9l-14.1-33.6H270.7z"/>
<path style="fill:#262729;" d="M316.9,19.7h-10.4v5.6h9.8v7.4h-9.8v5.8h10.4v7.4h-19.1V12.3h19.1V19.7z"/>
<path style="fill:#00B3E3;" d="M329.7,12.3v26.2h10.5v7.4h-19.2V12.3H329.7z"/>
<path style="fill:#00B3E3;" d="M377.3,12.3h13c3.1,0,5.4,0.7,7,2.2c1.6,1.5,2.4,3.6,2.4,6.4c0,1.7-0.3,3.1-0.9,4.2
	c-0.6,1.1-1.5,2.1-2.8,2.8c1.2,0.2,2.3,0.6,3.2,1.1c0.9,0.5,1.6,1.1,2.1,1.8c0.5,0.7,0.9,1.5,1.2,2.4c0.2,0.9,0.4,1.8,0.4,2.9
	c0,1.6-0.3,3-0.8,4.2c-0.5,1.2-1.3,2.2-2.3,3.1c-1,0.8-2.2,1.5-3.6,1.9c-1.4,0.4-3,0.6-4.8,0.6h-14V12.3z M386,25.4h1.6
	c2.7,0,4.1-1.1,4.1-3.3c0-2.2-1.4-3.3-4.1-3.3H386V25.4z M386,39.1h1.9c2.2,0,3.8-0.3,4.7-0.8c1-0.6,1.4-1.5,1.4-2.7
	s-0.5-2.2-1.4-2.7c-1-0.6-2.5-0.8-4.7-0.8H386V39.1z"/>
<path style="fill:#00B3E3;" d="M424.3,20.9c-1-0.8-1.9-1.3-2.9-1.7c-1-0.4-1.9-0.6-2.8-0.6c-1.1,0-2,0.3-2.8,0.8
	c-0.7,0.5-1.1,1.2-1.1,2.1c0,0.6,0.2,1.1,0.5,1.5c0.4,0.4,0.8,0.7,1.4,1c0.6,0.3,1.2,0.5,2,0.7c0.7,0.2,1.4,0.4,2.2,0.7
	c2.9,1,4.9,2.2,6.3,3.8c1.3,1.6,2,3.7,2,6.2c0,1.7-0.3,3.3-0.9,4.7s-1.4,2.6-2.5,3.6c-1.1,1-2.5,1.8-4.1,2.3
	c-1.6,0.5-3.5,0.8-5.5,0.8c-4.2,0-8.2-1.3-11.8-3.8l3.7-7c1.3,1.2,2.6,2,3.9,2.6c1.3,0.6,2.5,0.8,3.8,0.8c1.4,0,2.5-0.3,3.2-1
	c0.7-0.7,1-1.4,1-2.2c0-0.5-0.1-0.9-0.3-1.3c-0.2-0.4-0.5-0.7-0.9-1c-0.4-0.3-1-0.6-1.6-0.9c-0.7-0.3-1.5-0.6-2.4-0.9
	c-1.1-0.4-2.2-0.8-3.3-1.2c-1.1-0.4-2-1-2.9-1.7c-0.8-0.7-1.5-1.6-2-2.7c-0.5-1.1-0.8-2.5-0.8-4.1c0-1.7,0.3-3.2,0.8-4.5
	c0.5-1.4,1.3-2.5,2.3-3.5c1-1,2.2-1.7,3.7-2.2c1.4-0.5,3.1-0.8,4.8-0.8c1.7,0,3.4,0.2,5.2,0.7c1.8,0.5,3.5,1.1,5.2,2L424.3,20.9z"/>
<path style="fill:#00B3E3;" d="M363.5,12.3H354l-12.7,33.6h9.1l0.1-0.3l5.3-14.8l-0.7-4.1l-0.2-0.9h0.9h5.7h0.9l-0.2,0.9l-0.7,4.1
	l5.3,14.8l0.1,0.3h9.1L363.5,12.3z"/>
<path style="fill:#00B3E3;" d="M0.5,0.4v56.7h56.7V0.4H0.5z M23.6,44h-7.8V14.1h0.1l7.7,7.7V44z M46,44H28.9V21.7l7.6-7.6h0.1v23.3
	H46V44z"/>
</svg>
